<svg width="150" height="25" viewBox="0 0 150 25" fill="none" xmlns="http://www.w3.org/2000/svg">
<path d="M26.6823 20.4201V7.00235H30.2412V20.4201H26.6823ZM28.4618 5.81406C27.2013 5.81406 26.3363 4.97235 26.3363 3.80882C26.3363 2.64528 27.2013 1.82833 28.4618 1.82833C29.7222 1.82833 30.5872 2.64528 30.5872 3.80882C30.5872 4.97235 29.7222 5.81406 28.4618 5.81406Z" fill="#F4F2EB"/>
<path d="M36.273 20.841C34.1722 20.841 32.3927 19.925 31.2806 18.3159L33.6779 16.1621C34.3699 17.1276 35.3338 17.796 36.4707 17.796C37.3851 17.796 37.9536 17.3009 37.9536 16.5829C37.9536 15.7412 37.2121 15.4937 36.3224 15.2214C33.7273 14.4787 31.9479 13.3894 31.9479 10.8395C31.9479 8.26491 34.0734 6.5815 36.6931 6.5815C38.4973 6.5815 39.906 7.32418 41.0182 8.68576L38.5961 10.9138C37.9783 10.0721 37.4098 9.60174 36.619 9.60174C35.7045 9.60174 35.1608 10.0969 35.1608 10.7405C35.1608 11.607 35.9764 11.8545 36.9156 12.1269C39.5353 12.8695 41.1665 13.934 41.1665 16.5087C41.1665 19.0338 39.214 20.841 36.273 20.841Z" fill="#F4F2EB"/>
<path d="M42.2738 25V7.00235H45.8327C45.8327 7.59649 45.8327 8.16588 45.808 8.76003H45.8575C46.7719 7.44796 48.3536 6.70528 49.9354 6.70528C53.4696 6.70528 56.0646 9.65125 56.0646 13.7112C56.0646 17.7712 53.346 20.7667 49.9601 20.7667C48.1312 20.7667 46.7472 20.0488 45.8575 18.7367H45.808C45.8327 19.4794 45.8327 19.9498 45.8327 20.7667V25H42.2738ZM49.1445 17.5237C51.1464 17.5237 52.5057 15.8898 52.5057 13.7112C52.5057 11.5822 51.1464 9.89881 49.1445 9.89881C47.1179 9.89881 45.7586 11.508 45.7586 13.736C45.7586 15.9888 47.1179 17.5237 49.1445 17.5237Z" fill="#F4F2EB"/>
<path d="M57.2378 20.4201V2.44723H60.7967V20.4201H57.2378Z" fill="#F4F2EB"/>
<path d="M68.1148 20.7667C64.5806 20.7667 61.9609 17.8455 61.9609 13.7608C61.9609 9.72551 64.6795 6.73003 68.0654 6.73003C69.8943 6.73003 71.2783 7.39845 72.168 8.76003H72.2175C72.1928 8.16588 72.1928 7.64601 72.1928 7.00235H75.7517V20.4201H72.1928C72.1928 19.7022 72.1928 19.3804 72.2175 18.712H72.168C71.2289 20.0488 69.6966 20.7667 68.1148 20.7667ZM68.881 17.5484C70.9323 17.5484 72.2669 16.0136 72.2669 13.7608C72.2669 11.5327 70.9076 9.92356 68.881 9.92356C66.8791 9.92356 65.5198 11.607 65.5198 13.7608C65.5198 15.9145 66.9038 17.5484 68.881 17.5484Z" fill="#F4F2EB"/>
<path d="M78.8279 20.4201V10.2949H76.9249V7.00235H78.8279V3.56126H82.3868V7.00235H85.2043V10.2949H82.3868V20.4201H78.8279Z" fill="#F4F2EB"/>
<path d="M92.1453 20.841C88.0921 20.841 85.324 17.8703 85.324 13.736C85.324 9.57698 88.1168 6.5815 92.1947 6.5815C96.3715 6.5815 98.6947 9.20564 98.6947 13.5132C98.6947 13.9588 98.67 14.3301 98.6205 14.8005H88.7841C89.1548 16.5582 90.44 17.7712 92.3183 17.7712C93.727 17.7712 94.8392 17.1028 95.4323 15.766L98.3487 17.1523C97.1377 19.6527 94.9133 20.841 92.1453 20.841ZM88.8829 12.2259H95.4571C95.1111 10.6167 93.9989 9.62649 92.2194 9.62649C90.5141 9.62649 89.3525 10.691 88.8829 12.2259Z" fill="#F4F2EB"/>
<path d="M108.414 20.8162C103.273 20.8162 99.6404 17.1276 99.6404 11.9783C99.6404 6.82906 103.273 3.1404 108.414 3.1404C112.121 3.1404 115.137 5.1704 116.323 8.58674L112.616 9.77503C111.924 7.86881 110.391 6.63101 108.389 6.63101C105.473 6.63101 103.694 8.98283 103.694 11.9783C103.694 14.9986 105.448 17.3504 108.389 17.3504C110.416 17.3504 111.973 16.0878 112.665 14.1073L116.372 15.3204C115.186 18.7862 112.171 20.8162 108.414 20.8162Z" fill="#F4F2EB"/>
<path d="M117.601 20.4201V2.44723H121.16V20.4201H117.601Z" fill="#F4F2EB"/>
<path d="M128.699 20.841C125.016 20.841 122.644 18.6377 122.644 14.9986V7.00235H126.203V14.7757C126.203 16.4344 127.093 17.5979 128.699 17.5979C130.305 17.5979 131.195 16.4344 131.195 14.7757V7.00235H134.729V14.9738C134.729 18.6377 132.381 20.841 128.699 20.841Z" fill="#F4F2EB"/>
<path d="M143.895 20.7172C142.067 20.7172 140.707 20.0488 139.793 18.6872H139.743C139.768 19.2566 139.768 19.7765 139.768 20.4201H136.209V2.44723H139.768V6.68052C139.768 7.54698 139.768 7.91832 139.743 8.71052H139.793C140.732 7.39845 142.264 6.68052 143.871 6.68052C147.405 6.68052 150 9.60173 150 13.6865C150 17.7217 147.281 20.7172 143.895 20.7172ZM143.08 17.4989C145.082 17.4989 146.441 15.8403 146.441 13.6865C146.441 11.5327 145.082 9.89881 143.08 9.89881C141.053 9.89881 139.694 11.4337 139.694 13.6865C139.694 15.9145 141.053 17.4989 143.08 17.4989Z" fill="#F4F2EB"/>
<path d="M22.8929 4.65102C18.0843 -1.34046 8.7522 -1.33646 3.1106 3.47526C1.04037 5.24177 -0.524327 7.89467 0.164986 10.7129C0.85888 13.5493 4.16232 14.0051 6.63789 13.8255C6.30239 15.2375 5.92224 16.6649 5.26556 17.9636C5.96003 18.6944 7.06957 19.0868 8.06117 19.1834C8.43102 19.1422 8.86213 17.7389 8.96403 17.4066C9.38484 16.0358 9.64476 14.5958 9.91213 13.1868L13.3936 12.0167L13.0604 14.0897L15.1535 13.0186C15.1993 12.9952 15.2537 12.9952 15.2995 13.0186L17.3927 14.0897L17.02 11.7702C17.0119 11.7193 17.0285 11.6679 17.0652 11.6318L18.7318 9.97456L16.4079 9.612C16.357 9.60399 16.3129 9.57197 16.29 9.52622L15.2268 7.43089L14.1637 9.52622C14.1402 9.57197 14.0967 9.60399 14.0457 9.612L11.7219 9.97456L13.0324 11.2784L10.0633 12.2146C10.2224 11.2773 10.3759 10.328 10.4663 9.37982C10.5207 8.80623 10.669 7.45662 10.5018 6.9631C10.2499 6.21966 8.62052 5.59289 7.90201 5.64322C7.27167 5.68725 7.53732 6.14017 7.57396 6.53248C7.6919 7.79002 7.52529 9.19911 7.33751 10.4475C7.22358 11.2069 7.07472 11.9658 6.90182 12.7133C5.66632 12.6904 4.03464 12.5154 3.1438 11.5609C1.97415 10.308 2.69438 8.08739 3.49991 6.81555C6.33903 2.33781 14.0354 1.14431 18.2549 4.21755C21.7999 6.79954 22.7314 11.2007 20.6154 15.0556C18.2909 19.2898 11.4018 21.7214 6.78903 21.2393C5.35087 21.0889 3.39056 20.5662 3.11976 18.8992C2.99953 18.6384 2.51747 19.0376 2.4064 19.1771C1.8356 19.8948 2.50945 21.5412 2.90335 22.2686C4.25277 24.7597 7.64609 24.8787 10.1429 24.5904C15.1324 24.014 21.3076 20.8092 23.7837 16.3092C25.7675 12.7041 25.4847 7.88209 22.8923 4.65159L22.8929 4.65102Z" fill="#F4F2EB"/>
</svg>
